<svg xmlns="http://www.w3.org/2000/svg" width="109.06" height="15.598" viewBox="0 0 109.06 15.598"><g transform="translate(-22 -384)"><path d="M15.193,6.012a.809.809,0,0,0-.7-.556l-4.4-.4L8.361.988a.81.81,0,0,0-1.49,0L5.134,5.057l-4.4.4a.811.811,0,0,0-.46,1.417L3.6,9.787,2.619,14.1a.81.81,0,0,0,1.2.875l3.792-2.267,3.791,2.267a.81.81,0,0,0,1.205-.875l-.98-4.317,3.324-2.915a.811.811,0,0,0,.236-.861Zm-7.5,6.656" transform="translate(22 384.406)" fill="#ee5a30"/><path d="M15.193,6.012a.809.809,0,0,0-.7-.556l-4.4-.4L8.361.988a.81.81,0,0,0-1.49,0L5.134,5.057l-4.4.4a.811.811,0,0,0-.46,1.417L3.6,9.787,2.619,14.1a.81.81,0,0,0,1.2.875l3.792-2.267,3.791,2.267a.81.81,0,0,0,1.205-.875l-.98-4.317,3.324-2.915a.811.811,0,0,0,.236-.861Zm-7.5,6.656" transform="translate(45.332 384.406)" fill="#ee5a30"/><path d="M15.193,6.012a.809.809,0,0,0-.7-.556l-4.4-.4L8.361.988a.81.81,0,0,0-1.49,0L5.134,5.057l-4.4.4a.811.811,0,0,0-.46,1.417L3.6,9.787,2.619,14.1a.81.81,0,0,0,1.2.875l3.792-2.267,3.791,2.267a.81.81,0,0,0,1.205-.875l-.98-4.317,3.324-2.915a.811.811,0,0,0,.236-.861Zm-7.5,6.656" transform="translate(68.663 384.406)" fill="#ee5a30"/><path d="M15.193,6.012a.809.809,0,0,0-.7-.556l-4.4-.4L8.361.988a.81.81,0,0,0-1.49,0L5.134,5.057l-4.4.4a.811.811,0,0,0-.46,1.417L3.6,9.787,2.619,14.1a.81.81,0,0,0,1.2.875l3.792-2.267,3.791,2.267a.81.81,0,0,0,1.205-.875l-.98-4.317,3.324-2.915a.811.811,0,0,0,.236-.861Zm-7.5,6.656" transform="translate(91.995 384.406)" fill="#ee5a30"/><path d="M3.409,15.594a1.311,1.311,0,0,1-1.277-1.6l.914-4.027-3.1-2.718A1.311,1.311,0,0,1,.69,4.958l4.1-.372L6.412.792a1.31,1.31,0,0,1,2.409,0l1.621,3.795,4.1.372a1.311,1.311,0,0,1,.745,2.29l-3.1,2.718.914,4.026a1.311,1.311,0,0,1-1.278,1.6h0a1.31,1.31,0,0,1-.672-.186L7.616,13.294,4.081,15.408A1.309,1.309,0,0,1,3.409,15.594ZM7.616,1a.309.309,0,0,0-.285.188L5.476,5.528l-4.7.426A.311.311,0,0,0,.605,6.5L4.153,9.607,3.107,14.214a.31.31,0,0,0,.46.336l4.048-2.421,4.048,2.421a.31.31,0,0,0,.461-.336L11.079,9.607,14.627,6.5a.311.311,0,0,0-.176-.543L9.756,5.528,7.9,1.184A.311.311,0,0,0,7.616,1Z" transform="translate(115.327 384.004)" fill="#ee5a30"/></g></svg>